<?xml version="1.0" standalone="no"?>
<!DOCTYPE svg PUBLIC "-//W3C//DTD SVG 20010904//EN"
 "http://www.w3.org/TR/2001/REC-SVG-20010904/DTD/svg10.dtd">
<svg version="1.0" xmlns="http://www.w3.org/2000/svg"
 width="225.000000pt" height="225.000000pt" viewBox="0 0 225.000000 225.000000"
 preserveAspectRatio="xMidYMid meet">

<g transform="translate(0.000000,225.000000) scale(0.100000,-0.100000)"
fill="#000000" stroke="none">
<path d="M433 2239 c-176 -30 -333 -156 -392 -314 -39 -105 -42 -166 -39 -846
3 -647 4 -655 26 -720 54 -161 176 -281 337 -332 69 -22 76 -22 760 -22 684 0
691 0 760 22 164 52 286 174 338 337 22 71 22 74 22 761 0 687 0 690 -22 761
-51 160 -171 282 -333 337 -64 21 -74 22 -735 23 -369 1 -693 -2 -722 -7z
m408 -430 c158 -48 201 -262 73 -367 -72 -60 -165 -67 -248 -18 -142 83 -135
291 13 368 57 30 102 35 162 17z m707 -115 c147 -61 178 -262 56 -363 -86 -70
-196 -66 -280 11 -111 102 -87 275 47 342 61 30 121 34 177 10z m-727 -364
c19 -5 77 -37 129 -70 145 -93 216 -106 396 -71 121 23 218 27 276 11 68 -19
68 -19 68 -363 0 -339 -4 -363 -59 -391 -42 -22 -269 -23 -311 -1 -53 27 -58
50 -62 290 -3 183 -6 225 -21 252 -36 67 -116 102 -197 87 l-45 -9 -5 -280
c-5 -302 -7 -313 -60 -340 -40 -20 -256 -21 -305 -1 -64 27 -65 33 -65 450 0
401 2 418 49 435 35 13 167 13 212 1z"/>
</g>
</svg>