<?xml version="1.0" standalone="no"?>
<!DOCTYPE svg PUBLIC "-//W3C//DTD SVG 20010904//EN"
 "http://www.w3.org/TR/2001/REC-SVG-20010904/DTD/svg10.dtd">
<svg version="1.0" xmlns="http://www.w3.org/2000/svg"
 width="710.000000pt" height="710.000000pt" viewBox="0 0 710.000000 710.000000"
 preserveAspectRatio="xMidYMid meet">

<g transform="translate(0.000000,710.000000) scale(0.100000,-0.100000)"
fill="#000000" stroke="none">
<path d="M1875 6584 c-334 -36 -632 -247 -770 -547 -69 -150 -80 -203 -80
-397 0 -153 3 -185 23 -254 49 -170 129 -305 251 -426 233 -230 549 -323 871
-255 285 60 551 278 667 546 235 543 -69 1162 -642 1308 -80 20 -244 33 -320
25z"/>
<path d="M4880 6081 c-183 -39 -339 -122 -470 -251 -133 -130 -209 -257 -261
-435 -21 -70 -24 -102 -24 -245 0 -142 3 -176 23 -244 47 -163 120 -292 234
-412 129 -136 278 -222 462 -269 127 -32 297 -34 428 -5 290 64 539 264 663
533 72 156 101 363 76 537 -78 533 -606 902 -1131 791z"/>
<path d="M1430 4434 c-236 -29 -324 -75 -383 -203 l-22 -46 0 -1730 0 -1730
37 -78 c43 -90 119 -172 194 -209 105 -53 108 -53 709 -53 524 0 564 1 615 19
157 54 274 185 314 351 12 48 16 205 20 800 9 1089 18 1617 27 1641 15 42 204
84 375 84 298 0 539 -116 685 -331 49 -73 75 -132 100 -229 27 -106 38 -398
48 -1245 8 -690 9 -712 30 -769 30 -84 64 -138 121 -194 54 -53 147 -104 220
-121 28 -7 247 -11 580 -11 589 0 602 1 707 61 67 39 141 113 176 177 60 110
57 37 57 1562 0 1381 -1 1395 -21 1440 -57 127 -191 190 -488 230 -171 24
-305 25 -466 5 -129 -16 -180 -25 -470 -87 -341 -72 -401 -80 -651 -85 -253
-6 -344 2 -502 43 -247 64 -389 135 -767 388 -361 242 -474 292 -720 316 -172
18 -401 19 -525 4z"/>
</g>
</svg>
